<svg xmlns="http://www.w3.org/2000/svg" width="249" height="209" viewBox="0 0 249 209">
<g>
<path d="M 152.30,186.00 L 148.55,185.47 L 140.98,183.68 L 137.20,182.67 L 129.65,179.95 L 125.90,178.48 L 118.49,174.91 L 114.82,173.02 L 107.66,168.66 L 104.12,166.38 L 97.32,161.31 L 93.97,158.69 L 87.64,152.96 L 84.54,150.03 L 78.78,143.73 L 70.91,133.71 L 69.34,131.49 L 66.53,127.09 L 65.18,124.89 L 62.80,120.52 L 61.67,118.33 L 59.71,113.94 L 58.78,111.73 L 57.23,107.27 L 56.50,105.03 L 55.33,100.46 L 54.79,98.16 L 53.99,93.43 L 53.64,91.04 L 53.20,86.10 L 52.92,78.41 L 52.92,76.14 L 53.05,71.92 L 53.15,69.85 L 53.49,65.99 L 53.69,64.11 L 54.27,60.57 L 54.58,58.84 L 55.39,55.57 L 55.83,53.96 L 56.90,50.91 L 57.46,49.41 L 58.79,46.53 L 59.49,45.11 L 61.10,42.35 L 63.85,38.29 L 64.34,37.62 L 65.73,36.06 L 66.49,35.26 L 68.28,33.53 L 70.15,31.77 L 74.47,28.20 L 75.55,27.35 L 77.68,25.77 L 78.72,25.01 L 80.65,23.72 L 81.58,23.12 L 83.18,22.24 L 85.05,21.49 L 86.03,21.27 L 88.17,21.32 L 89.26,21.42 L 91.44,22.06 L 92.52,22.44 L 94.54,23.57 L 97.16,25.77 L 98.19,26.90 L 100.36,29.55 L 101.46,30.93 L 103.70,33.95 L 105.93,37.03 L 110.08,43.51 L 111.06,45.10 L 112.80,48.12 L 113.62,49.59 L 114.96,52.25 L 115.57,53.51 L 116.40,55.61 L 116.96,57.93 L 116.97,58.46 L 116.79,59.61 L 116.66,60.20 L 116.19,61.44 L 115.66,62.71 L 113.83,65.43 L 112.80,66.81 L 110.08,69.64 L 105.12,73.81 L 104.07,74.58 L 102.03,76.15 L 101.03,76.93 L 99.24,78.37 L 98.40,79.07 L 97.07,80.23 L 95.81,81.46 L 95.14,82.27 L 94.21,84.30 L 93.82,85.37 L 93.44,87.80 L 93.33,89.06 L 93.52,91.76 L 94.47,95.92 L 94.77,96.82 L 95.58,98.75 L 96.02,99.73 L 97.09,101.82 L 98.22,103.94 L 101.13,108.51 L 102.67,110.83 L 106.24,115.59 L 108.08,117.96 L 112.06,122.64 L 114.08,124.94 L 118.24,129.26 L 120.31,131.36 L 124.41,135.05 L 125.42,135.92 L 127.38,137.51 L 128.35,138.27 L 130.22,139.60 L 131.14,140.23 L 132.88,141.27 L 135.31,142.49 L 135.81,142.69 L 137.04,143.07 L 137.69,143.25 L 139.08,143.55 L 143.06,144.00 L 144.02,144.00 L 145.55,143.77 L 146.31,143.58 L 147.95,142.65 L 148.40,142.35 L 149.42,141.55 L 149.96,141.11 L 151.24,139.98 L 151.91,139.37 L 153.52,137.86 L 156.40,135.10 L 157.36,134.16 L 159.17,132.47 L 160.06,131.66 L 161.71,130.21 L 162.53,129.51 L 164.06,128.31 L 164.81,127.73 L 166.25,126.77 L 167.66,125.87 L 170.31,124.83 L 171.62,124.43 L 174.23,124.39 L 174.88,124.45 L 176.23,124.75 L 176.90,124.94 L 178.31,125.50 L 179.02,125.82 L 180.51,126.64 L 181.26,127.09 L 182.87,128.18 L 183.68,128.76 L 185.42,130.11 L 186.32,130.83 L 188.22,132.45 L 189.20,133.30 L 191.30,135.19 L 194.69,138.34 L 196.44,139.98 L 199.32,143.11 L 200.67,144.65 L 202.77,147.59 L 203.73,149.04 L 205.05,151.84 L 205.61,153.22 L 206.15,155.89 L 206.32,157.21 L 206.09,159.78 L 205.87,161.05 L 204.86,163.55 L 204.26,164.79 L 202.48,167.24 L 198.95,170.89 L 197.16,172.49 L 193.54,175.31 L 191.73,176.66 L 188.07,178.99 L 186.23,180.09 L 182.50,181.93 L 180.63,182.79 L 176.82,184.15 L 174.90,184.77 L 170.99,185.66 L 169.01,186.04 L 164.98,186.46 L 162.94,186.61 L 158.76,186.57 L 156.65,186.49 Z" fill="rgba(236,71,120,1)"/>
</g>
</svg>