<svg xmlns="http://www.w3.org/2000/svg" width="592" height="577" viewBox="0 0 592 577">
<g>
<path d="M 177.19,515.78 L 178.42,516.54 L 180.94,518.05 L 182.27,518.82 L 187.75,521.87 L 187.75,521.87 L 182.27,518.82 L 180.94,518.05 L 178.42,516.53 L 177.19,515.78 L 175.82,514.91 M 166.84,507.45 L 166.87,507.48 L 166.80,507.42 M 140.82,488.04 L 142.30,489.50 L 145.31,492.34 L 146.88,493.65 L 150.06,496.18 L 151.73,497.35 L 155.13,499.62 L 156.92,500.67 L 160.82,503.06 L 161.39,503.43 L 158.21,501.50 L 156.93,500.76 L 154.65,499.39 L 153.55,498.72 L 151.57,497.42 L 149.65,496.14 L 146.36,493.51 L 144.76,492.14 L 141.64,488.95 L 140.84,488.10 L 139.66,486.74 M 241.50,213.58 L 243.24,213.71 L 246.07,213.94 L 247.39,214.05 L 249.48,214.31 L 250.44,214.45 L 251.89,214.84 L 252.54,215.06 L 253.47,215.67 L 253.88,216.02 L 254.40,216.95 L 254.62,217.47 L 254.85,218.83 L 254.94,219.57 L 254.99,221.45 L 255.00,224.96 L 255.00,226.26 L 254.99,228.38 L 254.99,229.36 L 255.07,230.90 L 255.14,231.60 L 255.44,232.66 L 255.63,233.13 L 256.28,233.81 L 256.66,234.11 L 257.77,234.50 L 258.40,234.67 L 260.00,234.86 L 258.14,234.84 L 255.93,234.84 L 251.50,234.87 L 249.32,234.92 L 245.03,235.04 L 243.04,235.13 L 239.22,235.33 L 237.60,235.46 L 236.04,235.59 L 235.35,235.67 L 234.04,235.83 L 233.50,235.91 L 226.29,237.25 L 221.44,238.35 L 219.00,239.00 L 209.26,241.82 L 204.52,243.57 L 199.80,245.36 L 197.50,246.32 L 192.94,248.30 L 190.75,249.35 L 186.41,251.50 L 184.35,252.63 L 180.30,254.92 L 178.39,256.11 L 166.51,264.19 L 159.11,269.89 L 155.66,272.90 L 148.95,279.02 L 145.85,282.25 L 139.81,288.81 L 137.05,292.26 L 131.68,299.28 L 129.24,302.96 L 124.52,310.45 L 122.40,314.37 L 118.32,322.34 L 116.52,326.51 L 113.08,334.98 L 111.59,339.41 L 109.34,346.72 L 108.04,351.66 L 107.49,354.16 L 105.53,364.23 L 104.94,369.34 L 104.01,379.60 L 103.93,384.77 L 104.02,395.11 L 104.44,400.27 L 105.54,410.58 L 106.46,415.67 L 108.56,425.82 L 109.98,430.80 L 113.07,440.68 L 114.98,445.48 L 116.95,450.25 L 118.02,452.59 L 120.24,457.25 L 121.44,459.53 L 125.55,466.99 L 128.27,471.56 L 129.63,473.65 L 132.36,477.72 L 133.74,479.58 L 135.08,481.31 L 134.14,480.25 L 133.40,479.42 L 132.05,478.04 L 131.41,477.41 L 130.40,476.55 L 129.42,476.00 L 129.31,476.00 L 128.97,475.83 L 128.77,475.71 L 128.27,475.32 L 127.73,474.88 L 126.25,473.45 L 125.46,472.65 L 123.58,470.63 L 122.61,469.56 L 120.47,467.11 L 118.30,464.58 L 113.79,458.96 L 112.69,457.56 L 110.63,454.82 L 107.89,450.96 L 106.41,448.80 L 103.61,444.27 L 102.24,441.98 L 99.67,437.24 L 98.41,434.84 L 96.06,429.91 L 94.92,427.42 L 92.81,422.33 L 91.79,419.77 L 89.95,414.55 L 89.06,411.93 L 87.48,406.62 L 86.73,403.96 L 85.43,398.59 L 83.82,390.50 L 83.60,389.23 L 83.24,386.92 L 83.07,385.80 L 82.79,383.69 L 82.53,381.60 L 82.24,377.50 L 82.19,376.43 L 82.13,374.17 L 82.11,373.00 L 82.11,370.43 L 82.12,369.10 L 82.18,366.11 L 82.32,361.00 L 82.39,358.69 L 82.59,354.46 L 82.70,352.40 L 82.98,348.60 L 83.14,346.74 L 83.53,343.23 L 83.74,341.51 L 84.26,338.19 L 84.82,334.88 L 86.41,328.31 L 86.85,326.62 L 87.88,323.11 L 89.66,317.50 L 90.59,314.70 L 92.69,309.20 L 93.78,306.47 L 96.19,301.12 L 97.44,298.47 L 100.16,293.28 L 101.56,290.71 L 104.57,285.70 L 106.12,283.21 L 109.41,278.39 L 111.09,276.00 L 114.65,271.37 L 116.47,269.08 L 120.29,264.67 L 122.22,262.49 L 126.29,258.30 L 128.35,256.23 L 132.64,252.28 L 134.81,250.33 L 139.32,246.62 L 141.61,244.80 L 146.32,241.36 L 148.71,239.67 L 153.62,236.49 L 156.10,234.94 L 161.19,232.06 L 163.76,230.65 L 169.02,228.06 L 171.67,226.80 L 177.09,224.53 L 185.38,221.47 L 189.97,219.93 L 199.59,217.47 L 204.43,216.35 L 214.17,214.75 L 216.60,214.41 L 221.38,213.91 L 223.75,213.68 L 228.40,213.42 L 230.69,213.32 L 235.13,213.31 M 199.86,424.58 L 200.58,425.04 L 202.46,426.43 L 205.00,428.53 L 205.47,428.96 L 206.89,429.80 L 207.67,430.22 L 209.61,431.02 L 210.64,431.41 L 213.01,432.14 L 214.24,432.49 L 216.93,433.13 L 219.69,433.75 L 225.77,434.61 L 234.90,435.17 L 237.19,435.18 L 241.62,434.90 L 243.82,434.71 L 248.07,434.04 L 250.18,433.66 L 254.26,432.60 L 256.29,432.02 L 260.22,430.55 L 262.17,429.77 L 265.96,427.90 L 267.84,426.92 L 271.51,424.64 L 273.33,423.44 L 276.88,420.75 L 282.09,416.23 L 284.31,414.15 L 288.03,410.11 L 289.80,408.08 L 292.80,403.87 L 294.23,401.71 L 296.76,396.95 L 297.38,395.70 L 298.57,393.05 L 300.32,388.76 L 303.50,380.50 L 303.77,209.28 L 303.77,203.98 L 303.79,193.87 L 303.80,188.90 L 303.81,179.42 L 303.82,174.76 L 303.84,165.89 L 303.84,161.53 L 303.86,153.25 L 303.87,149.18 L 303.88,141.47 L 303.89,137.69 L 303.90,130.53 L 303.91,127.01 L 303.93,120.38 L 303.94,117.13 L 303.95,111.00 L 303.96,108.00 L 303.98,102.36 L 303.99,99.60 L 304.01,94.42 L 304.02,91.89 L 304.04,87.17 L 304.05,84.86 L 304.08,80.56 L 304.09,78.46 L 304.12,74.56 L 304.13,72.66 L 304.16,69.15 L 304.17,67.44 L 304.20,64.30 L 304.22,62.77 L 304.25,59.97 L 304.27,58.61 L 304.31,56.13 L 304.33,54.93 L 304.37,52.76 L 304.39,51.70 L 304.44,49.81 L 304.46,48.90 L 304.51,47.27 L 304.56,45.71 L 304.68,43.28 L 304.74,42.16 L 304.87,40.52 L 304.94,39.78 L 305.10,38.76 L 305.18,38.31 L 305.37,37.74 L 306.01,36.99 L 306.08,36.96 L 306.43,36.89 L 306.64,36.85 L 307.27,36.79 L 307.95,36.73 L 310.05,36.61 L 311.22,36.56 L 314.16,36.47 L 315.72,36.43 L 319.35,36.36 L 321.24,36.33 L 325.42,36.28 L 327.56,36.25 L 332.14,36.22 L 336.78,36.20 L 346.64,36.20 L 351.57,36.21 L 361.10,36.29 L 363.41,36.31 L 367.76,36.37 L 369.88,36.41 L 373.74,36.48 L 375.60,36.52 L 378.83,36.62 L 380.35,36.67 L 382.80,36.78 L 383.92,36.84 L 385.44,36.97 L 385.75,37.00 L 386.18,37.07 L 386.51,37.18 L 386.60,37.27 L 386.83,38.06 L 386.94,38.53 L 387.19,39.95 L 387.31,40.72 L 387.54,42.58 L 387.86,45.68 L 387.98,47.08 L 388.23,49.41 L 388.36,50.50 L 388.69,52.26 L 388.88,53.08 L 389.38,54.36 L 389.66,54.94 L 390.42,55.80 L 390.84,56.19 L 391.95,56.72 L 392.55,56.95 L 393.79,57.18 L 392.36,57.01 L 391.82,56.89 L 390.93,56.64 L 390.84,56.50 L 390.17,56.28 L 389.20,56.15 L 388.47,56.09 L 386.85,55.99 L 385.80,55.94 L 383.53,55.86 L 382.16,55.83 L 379.27,55.78 L 377.60,55.76 L 374.10,55.73 L 372.13,55.73 L 368.05,55.72 L 365.79,55.73 L 361.14,55.76 L 358.61,55.78 L 327.04,56.05 L 326.77,227.78 L 326.50,399.50 L 323.37,408.26 L 320.20,416.10 L 317.92,420.67 L 316.62,422.77 L 313.89,426.86 L 312.26,428.86 L 308.83,432.86 L 306.76,434.97 L 301.91,439.52 L 298.62,442.24 L 296.93,443.44 L 293.52,445.74 L 291.76,446.74 L 288.20,448.65 L 286.35,449.45 L 282.61,450.97 L 280.66,451.59 L 276.71,452.74 L 274.64,453.18 L 270.44,453.96 L 268.24,454.23 L 263.77,454.67 L 261.42,454.77 L 255.84,454.91 L 252.76,454.87 L 251.44,454.78 L 248.93,454.55 L 247.79,454.35 L 245.54,453.89 L 244.42,453.57 L 238.81,451.87 L 235.35,450.68 L 233.74,450.04 L 230.61,448.74 L 229.13,448.04 L 226.25,446.60 L 224.88,445.81 L 222.18,444.19 L 220.88,443.29 L 218.31,441.45 L 217.05,440.44 L 214.54,438.34 L 213.29,437.19 L 210.78,434.80 L 209.50,433.48 L 206.57,430.55 L 204.65,428.71 L 203.78,427.90 L 202.11,426.38 L 201.44,425.82 L 200.22,424.83 L 199.86,424.59 L 197.83,422.61 L 196.82,420.95 L 197.83,422.61 M 276.60,319.84 L 276.96,319.89 L 277.59,319.97 L 277.75,319.98 L 277.75,319.98 L 277.58,319.97 L 276.95,319.89 L 276.60,319.84 L 275.69,319.67 L 272.50,318.97 L 275.70,319.67 M 278.60,244.50 L 278.67,246.12 L 278.79,249.90 L 278.84,251.88 L 278.93,256.26 L 278.97,258.51 L 279.04,263.32 L 279.09,268.21 L 279.11,278.60 L 279.11,283.79 L 279.02,293.83 L 278.99,296.26 L 278.91,300.82 L 278.87,303.05 L 278.80,305.64 L 278.82,303.82 L 278.82,302.62 L 278.83,300.13 L 278.83,298.76 L 278.83,295.96 L 278.83,294.43 L 278.82,291.29 L 278.82,289.59 L 278.80,286.11 L 278.79,284.23 L 278.77,280.39 L 278.76,278.32 L 278.54,243.22 M 276.64,236.05 L 277.79,236.37 L 277.84,236.40 L 277.87,236.47 L 275.95,235.94 M 526.00,173.26 L 526.00,173.28 L 522.83,172.93 M 433.85,126.55 L 434.34,126.90 L 435.78,128.04 L 436.56,128.66 L 438.45,130.24 L 441.56,132.93 L 442.64,133.88 L 444.66,135.61 L 445.63,136.43 L 447.27,137.78 L 448.04,138.39 L 449.13,139.22 L 449.37,139.38 L 449.69,139.59 L 449.96,139.70 L 450.04,139.68 L 450.76,139.89 L 451.21,140.03 L 452.55,140.52 L 453.27,140.79 L 455.05,141.49 L 458.00,142.70 L 460.55,143.77 L 465.85,145.64 L 468.54,146.53 L 474.09,148.03 L 476.89,148.74 L 482.65,149.87 L 491.50,151.14 L 492.88,151.29 L 495.44,151.65 L 496.67,151.84 L 498.77,152.24 L 499.74,152.44 L 501.15,152.84 L 502.21,153.36 L 502.31,153.52 L 502.46,154.24 L 502.53,154.65 L 502.61,155.77 L 502.55,159.97 L 502.43,161.66 L 502.64,164.68 L 502.73,165.38 L 503.00,166.61 L 503.55,168.10 L 503.91,168.80 L 504.74,169.78 L 504.88,169.91 L 504.60,169.77 L 504.43,169.54 L 503.47,168.85 L 502.37,168.32 L 501.64,168.03 L 500.09,167.46 L 499.21,167.18 L 497.38,166.64 L 496.43,166.41 L 492.98,165.42 L 490.46,164.58 L 489.12,164.08 L 483.54,161.87 L 480.64,160.54 L 474.81,157.77 L 472.04,156.28 L 469.31,154.78 L 468.02,154.03 L 465.51,152.51 L 464.36,151.77 L 462.74,150.65 L 461.47,149.73 L 460.76,149.19 L 457.73,146.85 L 456.03,145.48 L 452.55,142.63 L 450.79,141.13 L 447.27,138.11 L 445.64,136.65 L 440.97,132.51 L 438.17,130.09 L 437.03,129.13 L 435.92,128.21 L 435.45,127.82 L 434.57,127.11 L 434.22,126.84 L 433.66,126.41 Z" fill="rgba(36,241,235,1)"/>
<path d="M 504.43,169.54 L 504.60,169.77 L 505.56,170.23 L 506.14,170.46 L 507.88,170.90 L 508.84,171.12 L 511.30,171.54 L 515.75,172.13 L 526.00,173.28 L 526.00,216.02 L 526.00,219.72 L 525.99,221.53 L 525.99,224.89 L 525.98,226.54 L 525.97,229.58 L 525.96,231.06 L 525.94,233.80 L 525.93,235.13 L 525.91,237.57 L 525.89,238.75 L 525.86,240.91 L 525.83,243.00 L 525.74,246.39 L 525.69,247.96 L 525.57,250.40 L 525.51,251.51 L 525.36,253.10 L 525.27,253.80 L 525.08,254.65 L 524.75,255.21 L 524.59,255.27 L 524.02,255.35 L 523.70,255.38 L 522.84,255.41 L 521.92,255.44 L 519.35,255.37 L 517.97,255.31 L 514.69,255.11 L 512.98,254.99 L 509.26,254.68 L 505.48,254.34 L 497.75,253.44 L 495.90,253.20 L 492.50,252.70 L 488.11,251.94 L 485.32,251.38 L 479.64,250.01 L 476.78,249.29 L 471.01,247.60 L 468.12,246.72 L 462.32,244.75 L 459.42,243.72 L 453.66,241.48 L 450.78,240.33 L 445.11,237.85 L 442.30,236.58 L 436.79,233.88 L 434.05,232.51 L 428.76,229.62 L 421.13,225.09 L 419.98,224.37 L 417.82,223.12 L 416.77,222.53 L 414.97,221.63 L 414.14,221.23 L 412.91,220.77 L 411.92,220.68 L 411.89,220.71 L 411.83,221.25 L 411.80,221.59 L 411.74,222.75 L 411.71,223.40 L 411.66,225.13 L 411.63,226.06 L 411.57,228.34 L 411.54,229.55 L 411.48,232.35 L 411.45,233.81 L 411.39,237.09 L 411.36,238.78 L 411.31,242.52 L 411.28,244.44 L 411.23,248.59 L 411.20,250.72 L 411.15,255.26 L 411.12,257.57 L 411.07,262.47 L 411.05,264.96 L 411.00,270.18 L 410.98,272.83 L 410.94,278.34 L 410.90,283.92 L 410.82,295.81 L 410.74,314.51 L 410.73,317.37 L 410.71,322.84 L 410.70,325.53 L 410.68,330.66 L 410.67,333.18 L 410.65,337.98 L 410.64,340.35 L 410.62,344.84 L 410.61,347.04 L 410.59,351.23 L 410.59,353.29 L 410.57,357.19 L 410.56,359.10 L 410.54,362.73 L 410.53,364.50 L 410.51,367.86 L 410.49,371.16 L 410.44,377.00 L 410.41,379.80 L 410.36,384.74 L 410.33,387.11 L 410.27,391.23 L 410.23,393.21 L 410.16,396.62 L 410.12,398.25 L 410.02,401.05 L 409.98,402.38 L 409.87,404.66 L 409.81,405.74 L 409.68,407.59 L 409.61,408.47 L 409.46,409.99 L 409.31,411.44 L 408.92,413.77 L 408.20,417.16 L 407.06,422.15 L 404.25,431.73 L 402.75,436.45 L 399.23,445.50 L 397.38,449.96 L 393.14,458.49 L 390.93,462.68 L 385.98,470.67 L 383.41,474.60 L 377.75,482.05 L 374.83,485.71 L 368.47,492.62 L 365.19,496.01 L 358.12,502.38 L 346.72,511.33 L 343.23,513.82 L 335.86,518.38 L 332.10,520.59 L 324.25,524.56 L 320.27,526.47 L 312.00,529.80 L 299.24,534.06 L 297.43,534.58 L 293.41,535.53 L 291.35,535.98 L 286.93,536.79 L 284.68,537.17 L 279.99,537.83 L 277.63,538.13 L 272.81,538.62 L 267.98,539.06 L 258.51,539.40 L 256.20,539.43 L 251.80,539.35 L 249.65,539.28 L 245.67,538.97 L 240.93,538.53 L 231.42,536.96 L 226.67,536.06 L 217.28,533.62 L 212.62,532.29 L 203.56,529.03 L 190.55,523.27 L 187.75,521.87 L 182.27,518.82 L 180.94,518.05 L 178.42,516.54 L 177.19,515.78 L 174.93,514.34 L 173.85,513.63 L 171.95,512.30 L 171.05,511.66 L 169.59,510.52 L 168.92,509.98 L 167.99,509.08 L 167.29,508.07 L 167.26,507.96 L 167.00,507.63 L 166.84,507.45 L 166.34,507.00 L 165.79,506.51 L 164.07,505.25 L 163.13,504.58 L 160.82,503.06 L 157.28,500.89 L 163.54,504.39 L 168.48,506.88 L 170.98,508.01 L 175.99,510.19 L 178.53,511.16 L 183.63,513.02 L 186.22,513.84 L 191.42,515.39 L 194.06,516.05 L 199.37,517.30 L 202.06,517.81 L 207.49,518.75 L 210.26,519.11 L 215.82,519.75 L 218.65,519.96 L 224.62,520.34 L 227.57,520.42 L 233.44,520.51 L 236.34,520.45 L 242.11,520.26 L 244.96,520.05 L 250.64,519.58 L 253.43,519.23 L 259.00,518.48 L 261.75,517.99 L 267.21,516.96 L 269.90,516.34 L 275.25,515.02 L 277.88,514.26 L 283.12,512.67 L 285.69,511.77 L 290.81,509.90 L 293.32,508.86 L 298.32,506.72 L 300.77,505.54 L 305.65,503.12 L 308.04,501.81 L 312.78,499.12 L 315.11,497.67 L 319.72,494.71 L 321.98,493.13 L 326.46,489.89 L 328.65,488.18 L 332.99,484.67 L 335.11,482.82 L 339.31,479.05 L 341.36,477.06 L 349.20,468.98 L 354.08,463.44 L 356.34,460.60 L 360.75,454.87 L 362.78,451.94 L 366.73,446.02 L 368.52,443.00 L 372.00,436.90 L 373.56,433.78 L 376.56,427.49 L 377.89,424.28 L 380.42,417.82 L 381.51,414.52 L 383.57,407.89 L 384.42,404.50 L 385.87,398.34 L 386.67,394.38 L 386.99,392.20 L 387.29,389.98 L 387.43,388.77 L 387.68,386.29 L 387.80,384.91 L 388.01,382.06 L 388.10,380.46 L 388.28,377.15 L 388.36,375.28 L 388.50,371.41 L 388.55,369.23 L 388.66,364.70 L 388.71,362.15 L 388.79,356.86 L 388.82,353.91 L 388.88,347.77 L 388.90,344.34 L 388.94,337.25 L 388.95,333.32 L 388.97,329.32 L 388.97,327.21 L 388.98,322.93 L 388.98,320.69 L 388.99,316.12 L 388.99,313.72 L 389.00,308.85 L 389.00,306.30 L 389.00,301.11 L 389.00,298.40 L 389.00,292.89 L 389.00,290.01 L 389.00,279.02 L 389.01,272.08 L 389.02,268.80 L 389.03,262.37 L 389.03,259.35 L 389.05,253.42 L 389.06,250.65 L 389.08,245.23 L 389.10,242.70 L 389.13,237.77 L 389.14,235.49 L 389.17,231.05 L 389.19,229.01 L 389.23,225.05 L 389.25,223.24 L 389.30,219.76 L 389.32,218.19 L 389.37,215.18 L 389.40,213.84 L 389.45,211.29 L 389.48,210.19 L 389.55,208.09 L 389.58,207.22 L 389.65,205.57 L 389.68,204.92 L 389.76,203.72 L 389.80,203.29 L 389.88,202.54 L 389.92,202.32 L 390.00,202.00 L 390.05,202.00 L 390.87,202.26 L 391.75,202.67 L 392.32,202.97 L 394.87,204.40 L 396.30,205.31 L 406.22,211.24 L 412.91,214.87 L 416.31,216.53 L 423.13,219.73 L 426.59,221.17 L 433.55,223.95 L 437.08,225.18 L 444.19,227.54 L 447.80,228.56 L 455.07,230.50 L 458.76,231.32 L 466.20,232.85 L 469.99,233.46 L 477.61,234.59 L 481.50,235.00 L 491.03,235.72 L 494.03,235.85 L 495.30,235.87 L 497.67,235.87 L 498.50,235.83 L 504.50,235.50 L 504.78,204.00 L 504.85,191.60 L 504.85,187.81 L 504.85,186.05 L 504.84,182.65 L 504.82,181.12 L 504.80,178.20 L 504.78,176.95 L 504.74,174.60 L 504.72,173.68 L 504.67,171.99 L 504.64,171.43 L 504.57,170.51 L 504.54,170.36 L 503.96,169.23 L 503.87,169.14 M 142.03,489.23 L 143.01,490.18 L 142.30,489.50 L 140.82,488.04 L 140.57,487.77 M 128.16,471.36 L 129.51,473.43 L 132.21,477.46 L 133.58,479.32 L 136.33,482.92 L 137.74,484.57 L 140.57,487.76 L 137.94,484.84 L 136.52,483.19 L 133.74,479.58 L 132.36,477.72 L 129.63,473.65 L 128.27,471.56 L 125.55,466.99 L 121.44,459.53 L 125.47,466.85 M 226.83,446.89 L 226.25,446.60 L 226.25,446.60 M 262.36,234.89 L 264.42,234.93 L 268.11,235.07 L 269.85,235.15 L 272.66,235.38 L 273.29,235.44 L 274.32,235.58 L 275.50,235.81 L 278.50,236.64 L 278.76,278.32 L 278.77,280.39 L 278.79,284.23 L 278.80,286.11 L 278.82,289.59 L 278.82,291.29 L 278.83,294.43 L 278.83,295.96 L 278.83,298.76 L 278.83,300.13 L 278.82,302.62 L 278.82,303.82 L 278.80,306.02 L 278.79,307.08 L 278.76,308.98 L 278.75,309.90 L 278.71,311.54 L 278.68,313.11 L 278.57,315.51 L 278.51,316.60 L 278.37,318.12 L 278.29,318.78 L 278.10,319.55 L 277.76,319.98 L 277.59,319.97 L 276.96,319.89 L 276.60,319.84 L 275.70,319.67 L 272.50,318.97 L 271.72,318.78 L 269.75,318.48 L 268.70,318.34 L 266.29,318.15 L 263.80,317.99 L 258.11,317.99 L 255.25,318.04 L 249.68,318.44 L 248.35,318.56 L 245.90,318.89 L 242.71,319.48 L 239.72,320.17 L 234.01,322.12 L 231.20,323.18 L 225.87,325.81 L 223.25,327.22 L 218.34,330.51 L 215.94,332.23 L 211.50,336.14 L 209.34,338.17 L 205.40,342.65 L 203.50,344.96 L 200.11,349.97 L 198.49,352.54 L 195.70,358.05 L 192.22,366.83 L 191.69,368.45 L 190.93,371.23 L 190.59,372.60 L 190.16,375.38 L 189.97,376.84 L 189.78,380.30 L 189.74,381.24 L 189.69,383.37 L 189.66,387.00 L 189.65,388.46 L 189.66,390.93 L 189.67,392.10 L 189.71,394.10 L 189.74,395.05 L 189.85,396.71 L 189.92,397.51 L 190.11,398.97 L 190.32,400.41 L 191.08,403.24 L 191.30,403.99 L 191.85,405.64 L 192.86,408.50 L 193.31,409.74 L 194.17,412.21 L 194.59,413.42 L 195.32,415.65 L 195.67,416.71 L 196.20,418.44 L 196.67,420.21 L 196.82,420.95 L 197.83,422.61 L 199.86,424.59 L 200.22,424.83 L 201.44,425.82 L 202.11,426.38 L 203.78,427.90 L 204.65,428.71 L 206.57,430.55 L 209.50,433.48 L 210.78,434.80 L 213.29,437.19 L 214.54,438.34 L 217.05,440.44 L 218.31,441.45 L 220.88,443.29 L 222.18,444.19 L 224.12,445.35 L 222.19,444.19 L 220.89,443.30 L 218.32,441.46 L 217.06,440.44 L 214.54,438.35 L 213.29,437.19 L 210.78,434.81 L 209.50,433.50 L 206.30,430.38 L 203.95,428.23 L 202.76,427.21 L 200.39,425.21 L 199.30,424.36 L 197.21,422.76 L 196.37,422.19 L 191.95,418.91 L 189.14,416.49 L 187.80,415.18 L 185.18,412.47 L 183.95,411.02 L 181.53,408.05 L 180.41,406.47 L 178.21,403.26 L 177.20,401.57 L 175.25,398.13 L 174.36,396.33 L 172.65,392.69 L 171.90,390.80 L 170.46,386.97 L 169.84,385.00 L 168.77,380.83 L 168.21,377.86 L 168.00,376.29 L 167.39,369.87 L 167.39,366.58 L 167.60,359.97 L 168.02,356.83 L 168.48,353.73 L 168.79,352.26 L 169.46,349.37 L 169.87,348.04 L 171.94,342.12 L 173.50,338.35 L 174.36,336.55 L 176.15,333.03 L 177.13,331.35 L 179.16,328.07 L 180.26,326.52 L 182.52,323.47 L 183.73,322.04 L 186.23,319.25 L 187.56,317.94 L 190.29,315.38 L 191.74,314.19 L 194.70,311.88 L 196.27,310.82 L 202.21,307.21 L 206.32,305.12 L 208.44,304.24 L 212.72,302.58 L 214.90,301.92 L 219.28,300.70 L 221.50,300.26 L 225.94,299.49 L 228.17,299.28 L 232.64,298.97 L 234.86,298.99 L 239.28,299.15 L 241.47,299.41 L 245.82,300.05 L 247.94,300.55 L 250.55,301.10 L 252.17,301.38 L 252.88,301.47 L 254.19,301.62 L 254.68,301.64 L 255.51,301.63 L 255.69,301.56 L 256.05,301.08 L 256.25,300.39 L 256.34,299.83 L 256.50,298.54 L 256.56,297.65 L 256.69,295.67 L 256.74,294.38 L 256.83,291.61 L 256.86,289.88 L 256.92,286.20 L 256.94,283.99 L 256.96,281.71 L 256.97,280.47 L 256.98,277.93 L 256.99,276.55 L 256.99,273.72 L 257.00,272.20 L 257.00,269.08 L 257.00,234.84 L 258.14,234.84 M 208.51,242.10 L 209.26,241.82 L 210.14,241.57 M 238.59,235.46 L 232.03,236.39 L 228.86,236.97 L 222.59,238.21 L 219.56,238.95 L 215.83,239.92 L 219.00,239.00 L 221.44,238.35 L 226.29,237.25 L 233.50,235.91 L 234.04,235.83 L 235.35,235.67 L 236.04,235.59 L 237.60,235.46 L 239.22,235.33 L 240.51,235.26 M 485.35,162.58 L 483.72,161.95 L 483.59,161.89 M 472.04,156.28 L 474.81,157.77 L 480.64,160.54 L 482.56,161.42 L 480.81,160.62 L 474.95,157.85 L 472.16,156.35 L 471.44,155.95 M 435.45,127.82 L 435.92,128.21 L 437.03,129.13 L 438.17,130.09 L 440.97,132.51 L 445.64,136.65 L 447.27,138.11 L 450.79,141.13 L 452.55,142.63 L 456.03,145.48 L 457.73,146.85 L 460.76,149.19 L 461.47,149.73 L 462.74,150.65 L 464.36,151.77 L 465.51,152.51 L 468.02,154.03 L 468.43,154.26 L 466.71,153.30 L 464.36,151.77 L 462.75,150.67 L 461.51,149.78 L 460.82,149.26 L 457.87,147.01 L 456.24,145.71 L 452.91,143.01 L 451.23,141.60 L 447.90,138.77 L 446.36,137.40 L 441.70,133.28 L 438.63,130.60 L 437.23,129.38 L 434.94,127.41 M 388.47,56.09 L 389.20,56.15 L 390.17,56.28 L 390.84,56.50 L 390.93,56.64 L 391.82,56.89 L 392.36,57.01 L 394.00,57.21 L 394.89,57.30 L 397.06,57.42 L 400.67,57.50 L 401.93,57.50 L 404.27,57.55 L 405.40,57.57 L 407.31,57.67 L 408.19,57.72 L 409.46,57.85 L 410.41,58.07 L 410.49,58.15 L 410.71,59.08 L 410.83,59.65 L 411.11,61.39 L 411.26,62.34 L 411.56,64.67 L 412.00,68.57 L 412.39,72.32 L 413.60,79.37 L 414.29,82.87 L 416.19,89.75 L 417.25,93.20 L 419.98,100.32 L 420.72,102.14 L 422.38,105.89 L 425.15,111.75 L 426.12,113.71 L 427.94,117.28 L 428.82,118.99 L 430.34,121.81 L 430.70,122.46 L 431.32,123.56 L 431.62,124.07 L 432.11,124.88 L 432.27,125.14 L 431.99,124.91 L 431.19,124.24 L 430.89,124.00 L 426.04,119.77 L 422.73,116.60 L 421.09,114.89 L 417.85,111.40 L 416.30,109.60 L 413.28,105.98 L 411.91,104.17 L 408.80,99.73 L 406.72,96.43 L 405.69,94.65 L 401.65,87.26 L 399.86,83.42 L 398.11,79.57 L 397.33,77.68 L 395.82,73.93 L 395.18,72.14 L 393.99,68.63 L 393.53,67.01 L 392.71,63.88 L 392.46,62.50 L 392.05,60.03 L 391.78,58.73 L 391.53,58.22 L 390.93,57.31 L 390.40,56.98 L 389.15,56.39 L 388.18,56.19 L 387.13,56.02 L 386.87,55.99 M 360.81,55.76 L 358.62,55.78 L 327.04,56.05 L 358.61,55.78 L 360.89,55.76 M 238.81,451.87 L 244.42,453.57 L 238.81,451.87 M 180.30,254.92 L 178.39,256.11 L 180.30,254.92 Z" fill="rgba(251,44,83,1)"/>
<path d="M 218.65,519.96 L 215.82,519.75 L 210.26,519.11 L 207.49,518.75 L 202.06,517.81 L 199.37,517.30 L 194.06,516.05 L 191.42,515.39 L 186.22,513.84 L 183.63,513.02 L 178.53,511.16 L 175.99,510.19 L 170.98,508.01 L 168.48,506.88 L 163.54,504.39 L 156.20,500.28 L 154.49,499.26 L 151.22,497.03 L 149.60,495.89 L 146.51,493.37 L 144.98,492.07 L 142.03,489.23 L 140.57,487.77 L 137.74,484.57 L 136.33,482.92 L 133.58,479.32 L 132.21,477.46 L 129.51,473.43 L 128.16,471.36 L 125.47,466.85 L 121.44,459.53 L 120.24,457.25 L 118.02,452.59 L 116.95,450.25 L 114.98,445.48 L 113.07,440.68 L 109.98,430.80 L 108.56,425.82 L 106.46,415.67 L 105.54,410.58 L 104.44,400.27 L 104.02,395.11 L 103.93,384.77 L 104.01,379.60 L 104.94,369.34 L 105.53,364.23 L 107.49,354.16 L 108.04,351.66 L 109.34,346.72 L 111.59,339.41 L 113.08,334.98 L 116.52,326.51 L 118.32,322.34 L 122.40,314.37 L 124.52,310.45 L 129.24,302.96 L 131.68,299.28 L 137.05,292.26 L 139.81,288.81 L 145.85,282.25 L 148.95,279.02 L 155.66,272.90 L 159.11,269.89 L 166.51,264.19 L 178.39,256.11 L 180.88,254.55 L 186.00,251.68 L 188.58,250.29 L 193.89,247.76 L 196.57,246.54 L 202.10,244.34 L 204.89,243.28 L 210.64,241.41 L 213.55,240.51 L 219.56,238.95 L 222.59,238.21 L 228.86,236.97 L 232.03,236.39 L 238.59,235.46 L 248.75,234.40 L 257.00,233.74 L 257.00,267.40 L 257.00,269.08 L 257.00,272.20 L 256.99,273.72 L 256.99,276.55 L 256.98,277.93 L 256.97,280.47 L 256.96,281.71 L 256.94,283.99 L 256.92,286.20 L 256.86,289.88 L 256.83,291.61 L 256.74,294.38 L 256.69,295.67 L 256.56,297.65 L 256.50,298.54 L 256.34,299.83 L 256.25,300.39 L 256.05,301.08 L 255.69,301.56 L 255.51,301.63 L 254.68,301.64 L 254.19,301.62 L 252.88,301.47 L 252.17,301.38 L 250.55,301.10 L 247.94,300.55 L 245.82,300.05 L 241.47,299.41 L 239.28,299.15 L 234.86,298.99 L 232.64,298.97 L 228.17,299.28 L 225.94,299.49 L 221.50,300.26 L 219.28,300.70 L 214.90,301.92 L 212.72,302.58 L 208.44,304.24 L 206.32,305.12 L 202.21,307.21 L 196.27,310.82 L 194.70,311.88 L 191.74,314.19 L 190.29,315.38 L 187.56,317.94 L 186.23,319.25 L 183.73,322.04 L 182.52,323.47 L 180.26,326.52 L 179.16,328.07 L 177.13,331.35 L 176.15,333.03 L 174.36,336.55 L 173.50,338.35 L 171.94,342.12 L 169.87,348.04 L 169.46,349.37 L 168.79,352.26 L 168.48,353.73 L 168.02,356.83 L 167.60,359.97 L 167.39,366.58 L 167.39,369.87 L 168.00,376.29 L 168.21,377.86 L 168.77,380.83 L 169.84,385.00 L 170.46,386.97 L 171.90,390.80 L 172.65,392.69 L 174.36,396.33 L 175.25,398.13 L 177.20,401.57 L 178.21,403.26 L 180.41,406.47 L 181.53,408.05 L 183.95,411.02 L 185.18,412.47 L 187.80,415.18 L 189.14,416.49 L 191.95,418.91 L 196.37,422.19 L 197.21,422.76 L 199.30,424.36 L 200.39,425.21 L 202.76,427.21 L 203.95,428.23 L 206.30,430.38 L 209.50,433.50 L 210.78,434.81 L 213.29,437.19 L 214.54,438.35 L 217.06,440.44 L 218.32,441.46 L 220.89,443.30 L 222.19,444.19 L 224.88,445.81 L 226.25,446.60 L 229.14,448.04 L 230.61,448.75 L 233.75,450.04 L 235.36,450.68 L 238.81,451.87 L 244.42,453.57 L 245.54,453.89 L 247.79,454.35 L 248.93,454.55 L 251.44,454.78 L 252.76,454.87 L 255.84,454.91 L 261.42,454.77 L 263.77,454.67 L 268.24,454.23 L 270.44,453.96 L 274.64,453.18 L 276.71,452.74 L 280.66,451.59 L 282.61,450.97 L 286.35,449.45 L 288.20,448.65 L 291.76,446.74 L 293.52,445.74 L 296.93,443.44 L 298.62,442.24 L 301.91,439.52 L 306.76,434.97 L 308.83,432.86 L 312.26,428.86 L 313.89,426.86 L 316.62,422.77 L 317.92,420.67 L 320.20,416.10 L 323.37,408.26 L 326.50,399.50 L 326.77,227.78 L 327.04,56.05 L 358.62,55.78 L 360.81,55.76 L 364.76,55.72 L 366.67,55.70 L 370.08,55.67 L 371.73,55.65 L 374.65,55.64 L 376.05,55.63 L 378.51,55.64 L 379.68,55.64 L 381.73,55.68 L 382.70,55.70 L 384.38,55.78 L 385.17,55.82 L 386.50,55.95 L 387.13,56.02 L 388.18,56.19 L 389.15,56.39 L 390.40,56.98 L 390.93,57.31 L 391.53,58.22 L 391.78,58.73 L 392.05,60.03 L 392.46,62.50 L 392.71,63.88 L 393.53,67.01 L 393.99,68.63 L 395.18,72.14 L 395.82,73.93 L 397.33,77.68 L 398.11,79.57 L 399.86,83.42 L 401.65,87.26 L 405.69,94.65 L 406.72,96.43 L 408.80,99.73 L 411.91,104.17 L 413.28,105.98 L 416.30,109.60 L 417.85,111.40 L 421.09,114.89 L 422.73,116.60 L 426.04,119.77 L 430.89,124.00 L 431.19,124.24 L 431.99,124.91 L 432.42,125.27 L 433.45,126.14 L 434.54,127.06 L 437.23,129.38 L 438.63,130.60 L 441.70,133.28 L 446.36,137.40 L 447.90,138.77 L 451.23,141.60 L 452.91,143.01 L 456.24,145.71 L 457.87,147.01 L 460.82,149.26 L 461.51,149.78 L 462.75,150.67 L 464.36,151.77 L 466.71,153.30 L 472.16,156.35 L 474.95,157.85 L 480.81,160.62 L 483.72,161.95 L 489.33,164.14 L 490.69,164.64 L 493.25,165.48 L 496.76,166.47 L 498.21,166.82 L 500.37,167.43 L 501.34,167.72 L 502.67,168.30 L 503.26,168.59 L 503.96,169.23 L 504.54,170.36 L 504.57,170.51 L 504.64,171.43 L 504.67,171.99 L 504.72,173.68 L 504.74,174.60 L 504.78,176.95 L 504.80,178.20 L 504.82,181.12 L 504.84,182.65 L 504.85,186.05 L 504.85,187.81 L 504.85,191.60 L 504.78,204.00 L 504.50,235.50 L 498.50,235.83 L 497.67,235.87 L 495.30,235.87 L 494.03,235.85 L 491.03,235.72 L 481.50,235.00 L 477.61,234.59 L 469.99,233.46 L 466.20,232.85 L 458.76,231.32 L 455.07,230.50 L 447.80,228.56 L 444.19,227.54 L 437.08,225.18 L 433.55,223.95 L 426.59,221.17 L 423.13,219.73 L 416.31,216.53 L 412.91,214.87 L 406.22,211.24 L 396.30,205.31 L 394.87,204.40 L 392.32,202.97 L 391.75,202.67 L 390.87,202.26 L 390.05,202.00 L 390.00,202.00 L 389.92,202.32 L 389.88,202.54 L 389.80,203.29 L 389.76,203.72 L 389.68,204.92 L 389.65,205.57 L 389.58,207.22 L 389.55,208.09 L 389.48,210.19 L 389.45,211.29 L 389.40,213.84 L 389.37,215.18 L 389.32,218.19 L 389.30,219.76 L 389.25,223.24 L 389.23,225.05 L 389.19,229.01 L 389.17,231.05 L 389.14,235.49 L 389.13,237.77 L 389.10,242.70 L 389.08,245.23 L 389.06,250.65 L 389.05,253.42 L 389.03,259.35 L 389.03,262.37 L 389.02,268.80 L 389.01,272.08 L 389.00,279.02 L 389.00,290.01 L 389.00,292.89 L 389.00,298.40 L 389.00,301.11 L 389.00,306.30 L 389.00,308.85 L 388.99,313.72 L 388.99,316.12 L 388.98,320.69 L 388.98,322.93 L 388.97,327.21 L 388.97,329.32 L 388.95,333.32 L 388.94,337.25 L 388.90,344.34 L 388.88,347.77 L 388.82,353.91 L 388.79,356.86 L 388.71,362.15 L 388.66,364.70 L 388.55,369.23 L 388.50,371.41 L 388.36,375.28 L 388.28,377.15 L 388.10,380.46 L 388.01,382.06 L 387.80,384.91 L 387.68,386.29 L 387.43,388.77 L 387.29,389.98 L 386.99,392.20 L 386.67,394.38 L 385.87,398.34 L 384.42,404.50 L 383.57,407.89 L 381.51,414.52 L 380.42,417.82 L 377.89,424.28 L 376.56,427.49 L 373.56,433.78 L 372.00,436.90 L 368.52,443.00 L 366.73,446.02 L 362.78,451.94 L 360.75,454.87 L 356.34,460.60 L 354.08,463.44 L 349.20,468.98 L 341.36,477.06 L 339.31,479.05 L 335.11,482.82 L 332.99,484.67 L 328.65,488.18 L 326.46,489.89 L 321.98,493.13 L 319.72,494.71 L 315.11,497.67 L 312.78,499.12 L 308.04,501.81 L 305.65,503.12 L 300.77,505.54 L 298.32,506.72 L 293.32,508.86 L 290.81,509.90 L 285.69,511.77 L 283.12,512.67 L 277.88,514.26 L 275.25,515.02 L 269.90,516.34 L 267.21,516.96 L 261.75,517.99 L 259.00,518.48 L 253.43,519.23 L 250.64,519.58 L 244.96,520.05 L 242.11,520.26 L 236.34,520.45 L 233.44,520.51 L 227.57,520.42 L 224.62,520.34 Z" fill="rgba(254,254,254,1)"/>
</g>
</svg>